<svg width="25" height="25" viewBox="0 0 25 25" fill="none" xmlns="http://www.w3.org/2000/svg">
<path d="M13.4998 4.56714C13.4998 4.01485 13.052 3.56714 12.4998 3.56714C11.9475 3.56714 11.4998 4.01485 11.4998 4.56714V11.5H4.56689C4.01461 11.5 3.56689 11.9477 3.56689 12.5C3.56689 13.0523 4.01461 13.5 4.56689 13.5H11.4998V20.4329C11.4998 20.9852 11.9475 21.4329 12.4998 21.4329C13.052 21.4329 13.4998 20.9852 13.4998 20.4329V13.5H20.4326C20.9849 13.5 21.4326 13.0523 21.4326 12.5C21.4326 11.9477 20.9849 11.5 20.4326 11.5H13.4998V4.56714Z" fill="white"/>
</svg>

