<svg width="24" height="25" viewBox="0 0 24 25" fill="none" xmlns="http://www.w3.org/2000/svg">
<path d="M12.0001 17.5787C11.4479 17.5787 11.0001 17.131 11.0001 16.5787V11.9105C11.0001 11.3582 11.4479 10.9105 12.0001 10.9105C12.5524 10.9105 13.0001 11.3582 13.0001 11.9105V16.5787C13.0001 17.131 12.5524 17.5787 12.0001 17.5787Z" fill="white"/>
<path d="M12.0001 9.48278C12.5524 9.48278 13.0001 9.03507 13.0001 8.48278V8.42159C13.0001 7.8693 12.5524 7.42159 12.0001 7.42159C11.4479 7.42159 11.0001 7.8693 11.0001 8.42159V8.48278C11.0001 9.03507 11.4479 9.48278 12.0001 9.48278Z" fill="white"/>
<path fill-rule="evenodd" clip-rule="evenodd" d="M12.0001 2.49219C6.4729 2.49219 1.99219 6.9729 1.99219 12.5001C1.99219 18.0274 6.4729 22.5081 12.0001 22.5081C17.5274 22.5081 22.0081 18.0274 22.0081 12.5001C22.0081 6.9729 17.5274 2.49219 12.0001 2.49219ZM3.99219 12.5001C3.99219 8.07747 7.57747 4.49219 12.0001 4.49219C16.4228 4.49219 20.0081 8.07747 20.0081 12.5001C20.0081 16.9228 16.4228 20.5081 12.0001 20.5081C7.57747 20.5081 3.99219 16.9228 3.99219 12.5001Z" fill="white"/>
</svg>
