<svg width="24" height="24" viewBox="0 0 24 24" fill="none" xmlns="http://www.w3.org/2000/svg">
<path d="M1.80872 5.91211C1.80872 5.35982 2.25643 4.91211 2.80872 4.91211H21C21.5523 4.91211 22 5.35982 22 5.91211C22 6.46439 21.5523 6.91211 21 6.91211H2.80872C2.25643 6.91211 1.80872 6.46439 1.80872 5.91211Z" fill="#FBFBFB"/>
<path d="M1.80872 11.7896C1.80872 11.2373 2.25643 10.7896 2.80872 10.7896H21C21.5523 10.7896 22 11.2373 22 11.7896C22 12.3418 21.5523 12.7896 21 12.7896H2.80872C2.25643 12.7896 1.80872 12.3418 1.80872 11.7896Z" fill="#FBFBFB"/>
<path d="M2.80872 16.5757C2.25643 16.5757 1.80872 17.0234 1.80872 17.5757C1.80872 18.128 2.25643 18.5757 2.80872 18.5757H21C21.5523 18.5757 22 18.128 22 17.5757C22 17.0234 21.5523 16.5757 21 16.5757H2.80872Z" fill="#FBFBFB"/>
</svg>
