<svg width="22" height="22" viewBox="0 0 22 22" fill="none" xmlns="http://www.w3.org/2000/svg">
<path d="M9.875 6.75C9.875 6.12868 10.3787 5.625 11 5.625C11.6213 5.625 12.125 6.12868 12.125 6.75C12.125 7.37132 11.6213 7.875 11 7.875C10.3787 7.875 9.875 7.37132 9.875 6.75Z" fill="white" fill-opacity="0.6"/>
<path d="M9.875 11C9.875 10.3787 10.3787 9.875 11 9.875C11.6213 9.875 12.125 10.3787 12.125 11C12.125 11.6213 11.6213 12.125 11 12.125C10.3787 12.125 9.875 11.6213 9.875 11Z" fill="white" fill-opacity="0.6"/>
<path d="M11 14.125C10.3787 14.125 9.875 14.6287 9.875 15.25C9.875 15.8713 10.3787 16.375 11 16.375C11.6213 16.375 12.125 15.8713 12.125 15.25C12.125 14.6287 11.6213 14.125 11 14.125Z" fill="white" fill-opacity="0.6"/>
</svg>
