<svg width="24" height="24" viewBox="0 0 24 24" fill="none" xmlns="http://www.w3.org/2000/svg">
<path d="M7.22656 16C7.22656 15.4477 7.67428 15 8.22656 15L15.7736 15C16.3258 15 16.7736 15.4477 16.7736 16C16.7736 16.5523 16.3258 17 15.7736 17L8.22656 17C7.67428 17 7.22656 16.5523 7.22656 16Z" fill="black"/>
<path fill-rule="evenodd" clip-rule="evenodd" d="M8.14712 3.25041C7.73312 2.88486 7.10118 2.92413 6.73563 3.33812C6.37008 3.75212 6.40935 4.38406 6.82334 4.74961L8.91574 6.59717H5.5C4.11929 6.59717 3 7.71646 3 9.09717V18.5C3 19.8807 4.11929 21 5.5 21H18.5C19.8807 21 21 19.8807 21 18.5V9.09717C21 7.71646 19.8807 6.59717 18.5 6.59717H15.0841L17.1765 4.74961C17.5905 4.38406 17.6298 3.75212 17.2642 3.33812C16.8987 2.92413 16.2667 2.88486 15.8527 3.25041L12.3309 6.36016C12.1418 6.52709 11.858 6.52709 11.669 6.36016L8.14712 3.25041ZM5.5 8.59717C5.22386 8.59717 5 8.82103 5 9.09717V18.5C5 18.7761 5.22386 19 5.5 19H18.5C18.7761 19 19 18.7761 19 18.5V9.09717C19 8.82103 18.7761 8.59717 18.5 8.59717H5.5Z" fill="black"/>
</svg>
