<svg width="20" height="20" viewBox="0 0 20 20" fill="none" xmlns="http://www.w3.org/2000/svg">
<path d="M0 0H20V16C20 18.2091 18.2091 20 16 20H0V0Z" fill="#1EA0EA"/>
<path fill-rule="evenodd" clip-rule="evenodd" d="M10 3.33398C8.26569 3.33398 6.85972 4.73996 6.85972 6.47431V7.67453H5.65698C5.1047 7.67453 4.65698 8.12224 4.65698 8.67453V15.5633C4.65698 16.1156 5.1047 16.5633 5.65698 16.5633H14.3431C14.8954 16.5633 15.3431 16.1156 15.3431 15.5633V8.67453C15.3431 8.12224 14.8954 7.67453 14.3431 7.67453H13.1404V6.47431C13.1404 4.73996 11.7344 3.33398 10 3.33398ZM11.807 7.67453V6.47431C11.807 5.47634 10.998 4.66732 10 4.66732C9.00207 4.66732 8.19305 5.47634 8.19305 6.47431V7.67453H11.807ZM11 12.1189C11 12.6712 10.5523 13.1189 10 13.1189C9.44776 13.1189 9.00005 12.6712 9.00005 12.1189C9.00005 11.5666 9.44776 11.1189 10 11.1189C10.5523 11.1189 11 11.5666 11 12.1189Z" fill="white"/>
</svg>
