<svg width="24" height="24" viewBox="0 0 24 24" fill="none" xmlns="http://www.w3.org/2000/svg">
<path fill-rule="evenodd" clip-rule="evenodd" d="M12.0169 2C8.36082 2 5.29999 4.77133 4.93791 8.40946L4.51876 12.621L2.93077 14.8441C1.74886 16.4988 2.93167 18.7972 4.9651 18.7972H7.91957C8.04786 20.9393 9.82569 22.6369 12 22.6369C14.1743 22.6369 15.9522 20.9393 16.0804 18.7972H19.035C21.0684 18.7972 22.2512 16.4988 21.0693 14.8441L19.6281 12.8265C19.578 12.7563 19.5468 12.6743 19.5378 12.5885L19.0915 8.36627C18.709 4.74693 15.6564 2 12.0169 2ZM6.92808 8.60753C7.18837 5.99221 9.38869 4 12.0169 4C14.6332 4 16.8276 5.97467 17.1026 8.57648L17.5488 12.7987C17.5942 13.2278 17.7498 13.6379 18.0007 13.989L19.4418 16.0066C19.6782 16.3376 19.4416 16.7972 19.035 16.7972H4.9651C4.55841 16.7972 4.32185 16.3376 4.55823 16.0066L6.25097 13.6368C6.37759 13.4866 6.46124 13.2982 6.482 13.0896L6.92808 8.60753ZM14.0732 18.7972H9.92676C10.0495 19.8333 10.9309 20.6369 12 20.6369C13.0691 20.6369 13.9505 19.8333 14.0732 18.7972Z" fill="black"/>
</svg>
