<svg width="24" height="24" viewBox="0 0 24 24" fill="none" xmlns="http://www.w3.org/2000/svg">
<path fill-rule="evenodd" clip-rule="evenodd" d="M7.96677 9.01177C7.96677 6.78426 9.77251 4.97852 12 4.97852C14.2275 4.97852 16.0333 6.78426 16.0333 9.01177C16.0333 11.2393 14.2275 13.045 12 13.045C9.77251 13.045 7.96677 11.2393 7.96677 9.01177ZM12 6.97852C10.8771 6.97852 9.96677 7.88883 9.96677 9.01177C9.96677 10.1347 10.8771 11.045 12 11.045C13.123 11.045 14.0333 10.1347 14.0333 9.01177C14.0333 7.88883 13.123 6.97852 12 6.97852Z" fill="black"/>
<path fill-rule="evenodd" clip-rule="evenodd" d="M2.04517 11.9998C2.04517 6.50187 6.50211 2.04492 12 2.04492C17.4979 2.04492 21.9549 6.50187 21.9549 11.9998C21.9549 17.4977 17.4979 21.9546 12 21.9546C6.50211 21.9546 2.04517 17.4977 2.04517 11.9998ZM12 4.04492C7.60668 4.04492 4.04517 7.60643 4.04517 11.9998C4.04517 13.7894 4.6361 15.4409 5.63348 16.7699C7.10225 14.8662 9.4071 13.6382 12 13.6382C14.5929 13.6382 16.8978 14.8663 18.3666 16.77C19.3639 15.4409 19.9549 13.7894 19.9549 11.9998C19.9549 7.60643 16.3934 4.04492 12 4.04492ZM16.954 18.2242C15.8622 16.6596 14.0497 15.6382 12 15.6382C9.95035 15.6382 8.13788 16.6596 7.04606 18.2242C8.40517 19.3073 10.127 19.9546 12 19.9546C13.873 19.9546 15.5949 19.3073 16.954 18.2242Z" fill="black"/>
</svg>
