<svg width="24" height="24" viewBox="0 0 24 24" fill="none" xmlns="http://www.w3.org/2000/svg">
<path fill-rule="evenodd" clip-rule="evenodd" d="M11.2254 2.81396C6.58328 2.81396 2.82007 6.57718 2.82007 11.2193C2.82007 15.8615 6.58328 19.6247 11.2254 19.6247C13.1832 19.6247 14.9846 18.9554 16.4134 17.8331L19.4729 20.8926C19.8634 21.2832 20.4966 21.2832 20.8871 20.8926C21.2777 20.5021 21.2777 19.8689 20.8871 19.4784L17.829 16.4203C18.9574 14.9894 19.6308 13.183 19.6308 11.2193C19.6308 6.57718 15.8676 2.81396 11.2254 2.81396ZM4.82007 11.2193C4.82007 7.68175 7.68785 4.81396 11.2254 4.81396C14.763 4.81396 17.6308 7.68175 17.6308 11.2193C17.6308 14.7569 14.763 17.6247 11.2254 17.6247C7.68785 17.6247 4.82007 14.7569 4.82007 11.2193Z" fill="black"/>
</svg>
